<svg id="레이어_1" data-name="레이어 1" xmlns="http://www.w3.org/2000/svg" viewBox="0 0 157.66 20.8"><defs><style>.cls-1{fill:#19526b;}</style></defs><path class="cls-1" d="M251.36,422a7,7,0,0,1-1.35,5.14l-.18.23-6.35.35-1.75.09a7.4,7.4,0,0,1-4.58-1.29,7.65,7.65,0,0,1-1.51-1.39l-1.31-1.59a1.71,1.71,0,0,1-.38-.76,5.6,5.6,0,0,1,1-4.71,5.46,5.46,0,0,1,1.12-1.08l1.12-.82a5.59,5.59,0,0,1,2.76-1.05l1-.11a4.64,4.64,0,0,1,2.75.59,4.68,4.68,0,0,1,1.61,1.55l1.1,1.76a2.76,2.76,0,0,1-.71,3.72l-1.21.88a6.41,6.41,0,0,1-1.35.76l-.28.12a4.21,4.21,0,0,1-3.14.07l-.64-.24a2.93,2.93,0,0,1-1.82-2,3.28,3.28,0,0,1,3.39-4.07,1.9,1.9,0,0,1,1.54,1l.06.1a.68.68,0,0,1,0,.69l-.61,1a.69.69,0,0,1-.57.31.66.66,0,0,1-.65-.53l-.13-.65a.46.46,0,0,0-.54-.36.46.46,0,0,0-.36.54l.13.65a1.59,1.59,0,0,0,1.54,1.27,1.62,1.62,0,0,0,1.36-.75l.61-1a1.57,1.57,0,0,0,0-1.63l-.06-.1a2.82,2.82,0,0,0-2.27-1.41,4.2,4.2,0,0,0-4.34,5.21,3.83,3.83,0,0,0,2.39,2.68l.64.24a5.12,5.12,0,0,0,3.81-.07l.29-.12a7.46,7.46,0,0,0,1.53-.87l1.21-.88a3.7,3.7,0,0,0,.95-4.95l-1.11-1.76a5.52,5.52,0,0,0-5.22-2.56l-1.06.11a6.55,6.55,0,0,0-3.2,1.22l-1.12.82a6.21,6.21,0,0,0-1.3,1.26,6.5,6.5,0,0,0-1.21,5.47,2.75,2.75,0,0,0,.56,1.15l1.31,1.59a8.38,8.38,0,0,0,6.85,3l1.75-.09,5.41-.3a9.62,9.62,0,0,1-9.22,2.25,18.07,18.07,0,0,0-4.3-.65c-2.58-.1-4.09-3-5-5.8a7.27,7.27,0,0,1,1.73-7.15,9,9,0,0,0,1.92-3.13,5.55,5.55,0,0,1,2.63-2.78,7.37,7.37,0,0,1,8.63,1.08,15.1,15.1,0,0,0,2.95,2.15c2.86,1.6,3,5.23,3,6.54a6.35,6.35,0,0,0,.07,1.15Z" transform="translate(-230.15 -410.14)"/><path class="cls-1" d="M265.83,425.36a5,5,0,0,1-.66.38,5.89,5.89,0,0,1-.77.31,4.84,4.84,0,0,1-.83.22,4.76,4.76,0,0,1-.83.08,7,7,0,0,1-2.23-.35,4.91,4.91,0,0,1-1.78-1.06,4.78,4.78,0,0,1-1.18-1.79,7.75,7.75,0,0,1,0-5.09,4.71,4.71,0,0,1,1.18-1.79,4.79,4.79,0,0,1,1.78-1.07,6.73,6.73,0,0,1,2.23-.35,4.76,4.76,0,0,1,.84.07,5.6,5.6,0,0,1,.83.21,4.68,4.68,0,0,1,.76.32,5.41,5.41,0,0,1,.64.37,1.54,1.54,0,0,1,.37.39,1.43,1.43,0,0,1,.22.52,1.67,1.67,0,0,1,0,.63,2.09,2.09,0,0,1-.29.71,2.06,2.06,0,0,1-.58.62,1.79,1.79,0,0,1-.6.25,1.13,1.13,0,0,1-.52,0,1.51,1.51,0,0,1-.37-.14,6.15,6.15,0,0,0-.64-.37,1.4,1.4,0,0,0-.66-.16,2,2,0,0,0-.82.16,1.75,1.75,0,0,0-.65.46,2.06,2.06,0,0,0-.43.74,3.14,3.14,0,0,0,0,2,2.11,2.11,0,0,0,.43.73,1.75,1.75,0,0,0,.65.46,2.18,2.18,0,0,0,.82.15,1.8,1.8,0,0,0,.83-.17c.21-.12.44-.27.69-.44a1,1,0,0,1,.37-.14,1.17,1.17,0,0,1,.49,0,1.6,1.6,0,0,1,.54.24,2.16,2.16,0,0,1,.88,1.28,1.42,1.42,0,0,1,0,.68,1.55,1.55,0,0,1-.28.56A2.25,2.25,0,0,1,265.83,425.36Z" transform="translate(-230.15 -410.14)"/><path class="cls-1" d="M268,416.32a1.93,1.93,0,0,1,.22-.69,1.47,1.47,0,0,1,.39-.46,1.57,1.57,0,0,1,.5-.25,2.1,2.1,0,0,1,.56-.07,2.12,2.12,0,0,1,.57.07,1.57,1.57,0,0,1,.5.25,1.61,1.61,0,0,1,.39.46,1.93,1.93,0,0,1,.22.69c.06.51.11,1.14.14,1.86s.05,1.49.05,2.27,0,1.54-.05,2.29-.09,1.4-.16,2a2.19,2.19,0,0,1-.49,1.2,1.73,1.73,0,0,1-2.33,0,2.19,2.19,0,0,1-.49-1.2,19.66,19.66,0,0,1-.16-2c0-.75-.05-1.51-.05-2.29s0-1.54.05-2.27S267.89,416.83,268,416.32Z" transform="translate(-230.15 -410.14)"/><path class="cls-1" d="M273.08,416.35a1.8,1.8,0,0,1,.52-1.16,1.47,1.47,0,0,1,1-.34,1.44,1.44,0,0,1,.89.26,4.07,4.07,0,0,1,.68.64c.18.21.4.48.66.82s.54.7.83,1.1.56.8.83,1.2a10,10,0,0,1,.69,1.15h.07q0-1.18,0-2.16a13.24,13.24,0,0,1,.09-1.51,1.64,1.64,0,0,1,.56-1.16,1.66,1.66,0,0,1,1-.34,1.55,1.55,0,0,1,1.62,1.5q.09.73.15,1.83c0,.72.05,1.48.05,2.26s0,1.56-.07,2.32-.08,1.41-.15,2a2.6,2.6,0,0,1-.4,1.18,1.14,1.14,0,0,1-.95.44,3.28,3.28,0,0,1-.47,0,1.29,1.29,0,0,1-.38-.12A1.85,1.85,0,0,1,280,426a4.7,4.7,0,0,1-.44-.4,8.24,8.24,0,0,1-.59-.67c-.25-.3-.51-.64-.8-1s-.57-.81-.87-1.27-.57-.91-.82-1.38h-.07c0,.77,0,1.46,0,2.06s-.05,1.09-.1,1.47a2.15,2.15,0,0,1-.47,1.18,1.43,1.43,0,0,1-1.14.44,1.36,1.36,0,0,1-1.12-.44,2.3,2.3,0,0,1-.44-1.18,19.66,19.66,0,0,1-.16-2c0-.75-.05-1.51-.05-2.29s0-1.54.05-2.27S273,416.86,273.08,416.35Z" transform="translate(-230.15 -410.14)"/><path class="cls-1" d="M284.34,416.35a1.8,1.8,0,0,1,.52-1.16,1.47,1.47,0,0,1,1-.34,1.44,1.44,0,0,1,.89.26,4.07,4.07,0,0,1,.68.64c.18.21.4.48.67.82s.53.7.82,1.1.56.8.83,1.2a10,10,0,0,1,.69,1.15h.07c0-.79,0-1.51,0-2.16a13.24,13.24,0,0,1,.09-1.51,1.64,1.64,0,0,1,.56-1.16,1.66,1.66,0,0,1,1-.34,1.55,1.55,0,0,1,1.62,1.5q.09.73.15,1.83c0,.72.05,1.48.05,2.26s0,1.56-.06,2.32-.09,1.41-.16,2a2.6,2.6,0,0,1-.4,1.18,1.13,1.13,0,0,1-.95.44,3.28,3.28,0,0,1-.47,0,1.29,1.29,0,0,1-.38-.12,1.85,1.85,0,0,1-.37-.25c-.12-.1-.27-.23-.44-.4s-.34-.37-.59-.67-.51-.64-.79-1-.58-.81-.87-1.27-.58-.91-.83-1.38h-.07c0,.77,0,1.46,0,2.06s-.05,1.09-.09,1.47a2.23,2.23,0,0,1-.48,1.18,1.43,1.43,0,0,1-1.14.44,1.37,1.37,0,0,1-1.12-.44,2.3,2.3,0,0,1-.44-1.18,19.66,19.66,0,0,1-.16-2c0-.75-.05-1.51-.05-2.29s0-1.54.05-2.27S284.28,416.86,284.34,416.35Z" transform="translate(-230.15 -410.14)"/><path class="cls-1" d="M294.91,424.27c.09-.52.24-1.14.44-1.86s.43-1.44.67-2.17.48-1.43.72-2.08.46-1.19.65-1.6a3.85,3.85,0,0,1,.79-1.16,1.8,1.8,0,0,1,1.05-.51,5.2,5.2,0,0,1,1.7,0,1.66,1.66,0,0,1,1,.51,5.38,5.38,0,0,1,.79,1.16c.13.25.28.57.44,1s.33.8.5,1.25.33.92.49,1.42.31,1,.45,1.47.27.95.37,1.38.19.82.25,1.16a2.32,2.32,0,0,1-.13,1.35,1.43,1.43,0,0,1-1,.73,1.63,1.63,0,0,1-1.28-.13,2,2,0,0,1-.83-1,5.64,5.64,0,0,1-.2-.59c-.07-.25-.13-.48-.17-.7l-.74.08c-.27,0-.54,0-.82,0l-.81,0-.73-.07c0,.2-.1.43-.17.68a5.21,5.21,0,0,1-.19.59,1.88,1.88,0,0,1-.87,1.08,1.83,1.83,0,0,1-1.3.08,1.39,1.39,0,0,1-1-.73A2,2,0,0,1,294.91,424.27Zm4.33-3.46h1.7c-.06-.24-.13-.5-.21-.76s-.15-.54-.23-.81-.15-.53-.21-.78-.13-.48-.18-.69h-.06c0,.22-.1.45-.17.7s-.13.51-.2.77-.15.54-.23.81S299.31,420.57,299.24,420.81Z" transform="translate(-230.15 -410.14)"/><path class="cls-1" d="M306.11,424.42c0-.33,0-.73.05-1.18s.06-.94.11-1.45.1-1,.17-1.55.13-1,.2-1.54.16-1,.24-1.39.17-.81.27-1.13a1.65,1.65,0,0,1,.72-1.05,2.29,2.29,0,0,1,1.14-.28,1.78,1.78,0,0,1,1.12.34,2.54,2.54,0,0,1,.71.85,15,15,0,0,1,.75,1.82c.26.76.55,1.66.87,2.71h.05q.48-1.57.9-2.73c.28-.77.53-1.37.73-1.8a2.28,2.28,0,0,1,.7-.86,1.84,1.84,0,0,1,1.12-.33,2.29,2.29,0,0,1,1.14.28,1.69,1.69,0,0,1,.72,1.05c.09.32.17.69.26,1.13s.17.89.24,1.39.15,1,.21,1.54.12,1.05.17,1.55.08,1,.11,1.45,0,.85,0,1.18a2.63,2.63,0,0,1-.29,1.3,1.24,1.24,0,0,1-1,.61,1.39,1.39,0,0,1-1.14-.26,2,2,0,0,1-.56-1.08,5.48,5.48,0,0,1-.14-.74c-.05-.3-.1-.65-.14-1s-.09-.81-.14-1.25-.07-.9-.1-1.37h-.07c-.11.48-.23.94-.35,1.38s-.24.86-.35,1.25-.23.74-.34,1.06a7.12,7.12,0,0,1-.3.81,1.66,1.66,0,0,1-.54.74,1.74,1.74,0,0,1-1.73,0,1.66,1.66,0,0,1-.54-.74,6.26,6.26,0,0,1-.3-.8c-.11-.33-.22-.69-.34-1.08s-.23-.82-.35-1.27-.24-.89-.35-1.35h-.07c0,.47-.06.92-.11,1.37s-.08.86-.13,1.25-.09.73-.14,1a5.48,5.48,0,0,1-.14.74,2,2,0,0,1-.56,1.08,1.4,1.4,0,0,1-1.14.26,1.24,1.24,0,0,1-1-.61A2.63,2.63,0,0,1,306.11,424.42Z" transform="translate(-230.15 -410.14)"/><path class="cls-1" d="M325.38,426.35a6.13,6.13,0,0,1-2.12-.37,4.81,4.81,0,0,1-1.72-1.11,5.07,5.07,0,0,1-1.15-1.79,7.53,7.53,0,0,1,0-5,5.11,5.11,0,0,1,1.15-1.8,4.65,4.65,0,0,1,1.72-1.1,6.23,6.23,0,0,1,4.23,0,4.62,4.62,0,0,1,1.71,1.1,5.13,5.13,0,0,1,1.16,1.8,7.37,7.37,0,0,1,0,5,5.09,5.09,0,0,1-1.16,1.79,4.77,4.77,0,0,1-1.71,1.11A6.12,6.12,0,0,1,325.38,426.35Zm0-3.36a1.63,1.63,0,0,0,1.36-.65,2.79,2.79,0,0,0,.49-1.74,2.84,2.84,0,0,0-.49-1.75,1.6,1.6,0,0,0-1.36-.64,1.62,1.62,0,0,0-1.37.64,3.37,3.37,0,0,0,0,3.5A1.64,1.64,0,0,0,325.38,423Z" transform="translate(-230.15 -410.14)"/><path class="cls-1" d="M332.23,416.35a1.8,1.8,0,0,1,.52-1.16,1.47,1.47,0,0,1,1-.34,1.44,1.44,0,0,1,.89.26,4.56,4.56,0,0,1,.69.64l.66.82c.26.34.54.7.82,1.1l.84,1.2c.27.41.5.79.69,1.15h.07c0-.79,0-1.51,0-2.16a13.24,13.24,0,0,1,.09-1.51,1.64,1.64,0,0,1,.56-1.16,1.68,1.68,0,0,1,1-.34,1.55,1.55,0,0,1,1.62,1.5c.06.49.12,1.1.15,1.83s.06,1.48,0,2.26,0,1.56-.06,2.32-.09,1.41-.15,2a2.6,2.6,0,0,1-.41,1.18,1.13,1.13,0,0,1-.95.44,3.13,3.13,0,0,1-.46,0,1.27,1.27,0,0,1-.39-.12,1.85,1.85,0,0,1-.37-.25c-.12-.1-.27-.23-.44-.4s-.34-.37-.59-.67-.51-.64-.79-1-.58-.81-.87-1.27-.58-.91-.83-1.38h-.07c0,.77,0,1.46,0,2.06s0,1.09-.09,1.47a2.23,2.23,0,0,1-.48,1.18,1.43,1.43,0,0,1-1.14.44,1.37,1.37,0,0,1-1.12-.44,2.3,2.3,0,0,1-.44-1.18,19.66,19.66,0,0,1-.16-2c0-.75,0-1.51,0-2.29s0-1.54,0-2.27S332.17,416.86,332.23,416.35Z" transform="translate(-230.15 -410.14)"/><path class="cls-1" d="M347.69,416.32a2.16,2.16,0,0,1,.21-.69,1.44,1.44,0,0,1,.38-.46,1.73,1.73,0,0,1,.51-.25,2.1,2.1,0,0,1,.56-.07,2.17,2.17,0,0,1,.57.07,1.52,1.52,0,0,1,.49.25,1.59,1.59,0,0,1,.38.46,2.43,2.43,0,0,1,.22.69c.06.41.12.91.15,1.51s.07,1.2.08,1.82,0,1.22,0,1.78,0,1-.08,1.35c.22,0,.48,0,.77-.06h.89l.93.05.91.11a2.18,2.18,0,0,1,1.17.51,1.49,1.49,0,0,1,.42,1.15,1.57,1.57,0,0,1-.42,1.18,2,2,0,0,1-1.19.51c-.39,0-.81.08-1.26.1s-.9,0-1.36,0-.91,0-1.34,0-.82-.05-1.17-.1a2.28,2.28,0,0,1-1.22-.52,1.88,1.88,0,0,1-.57-1.15c-.06-.33-.1-.71-.14-1.15s-.05-.9-.07-1.39,0-1,0-1.53,0-1.05,0-1.55,0-1,.07-1.42S347.65,416.67,347.69,416.32Z" transform="translate(-230.15 -410.14)"/><path class="cls-1" d="M356.71,424.27a17.42,17.42,0,0,1,.45-1.86c.2-.71.42-1.44.66-2.17s.48-1.43.72-2.08.47-1.19.65-1.6a4,4,0,0,1,.79-1.16,1.8,1.8,0,0,1,1-.51,5.2,5.2,0,0,1,1.7,0,1.66,1.66,0,0,1,1,.51,5.38,5.38,0,0,1,.79,1.16c.13.25.28.57.44,1s.33.8.5,1.25.33.92.49,1.42.32,1,.46,1.47.26.95.36,1.38.19.82.25,1.16a2.32,2.32,0,0,1-.13,1.35,1.41,1.41,0,0,1-1,.73,1.63,1.63,0,0,1-1.28-.13,2.1,2.1,0,0,1-.83-1,5.64,5.64,0,0,1-.2-.59c-.07-.25-.13-.48-.17-.7l-.74.08c-.27,0-.54,0-.82,0s-.54,0-.8,0l-.74-.07c0,.2-.1.43-.17.68a5.21,5.21,0,0,1-.19.59,1.88,1.88,0,0,1-.87,1.08,1.83,1.83,0,0,1-1.3.08,1.41,1.41,0,0,1-1-.73A2,2,0,0,1,356.71,424.27Zm4.33-3.46h1.71c-.07-.24-.14-.5-.21-.76s-.15-.54-.23-.81-.15-.53-.22-.78-.12-.48-.18-.69h-.06c0,.22-.1.45-.16.7l-.21.77c-.08.27-.15.54-.23.81S361.11,420.57,361,420.81Z" transform="translate(-230.15 -410.14)"/><path class="cls-1" d="M368.1,416.41a1.65,1.65,0,0,1,.22-.68,1.41,1.41,0,0,1,.41-.43,1.55,1.55,0,0,1,.52-.24,2.85,2.85,0,0,1,.58-.12c.44,0,.94-.07,1.48-.09s1.19,0,1.93,0a6.58,6.58,0,0,1,1.43.27,3.82,3.82,0,0,1,1.18.58,2.85,2.85,0,0,1,.81.92,2.59,2.59,0,0,1,.3,1.27,2.78,2.78,0,0,1-.16,1,2.69,2.69,0,0,1-.44.74,2.34,2.34,0,0,1-.59.5,2.25,2.25,0,0,1-.65.27v0a3.83,3.83,0,0,1,.87.39,2.7,2.7,0,0,1,.69.61,2.63,2.63,0,0,1,.46.82,3.4,3.4,0,0,1,.16,1.05,2.66,2.66,0,0,1-.33,1.38,2.59,2.59,0,0,1-.89.91,4.61,4.61,0,0,1-1.32.52,9,9,0,0,1-1.62.19c-.6,0-1.15,0-1.66,0s-1.05-.06-1.65-.12a2.29,2.29,0,0,1-1.17-.4,1.6,1.6,0,0,1-.55-1.08c0-.27-.08-.62-.11-1s-.05-.9-.06-1.4,0-1,0-1.57,0-1.09,0-1.61,0-1,.07-1.49A12,12,0,0,1,368.1,416.41Zm3.27,7.06.31,0h.85l.39,0a1,1,0,0,0,.68-.28.78.78,0,0,0,.25-.59.76.76,0,0,0-.25-.59,1.09,1.09,0,0,0-.68-.28l-.37,0h-.82l-.29,0c0,.27,0,.57,0,.9S371.39,423.24,371.37,423.47Zm0-5.78c0,.21,0,.47,0,.77s0,.57,0,.82l.24,0h.7a1.45,1.45,0,0,0,.32,0,1,1,0,0,0,.52-.25.66.66,0,0,0,.24-.55.69.69,0,0,0-.24-.55,1.12,1.12,0,0,0-.52-.24l-.33,0h-.73Z" transform="translate(-230.15 -410.14)"/><path class="cls-1" d="M383,417.76a.67.67,0,0,0-.51.15.53.53,0,0,0-.15.37.41.41,0,0,0,.2.36,1.75,1.75,0,0,0,.48.21c.41.1.81.21,1.21.33s.79.26,1.19.42a6.62,6.62,0,0,1,1,.53,3.11,3.11,0,0,1,.76.68,2.83,2.83,0,0,1,.48.89,4.06,4.06,0,0,1,.16,1.16,3.38,3.38,0,0,1-.27,1.34,3.09,3.09,0,0,1-.77,1.1,3.58,3.58,0,0,1-1.26.75,5.07,5.07,0,0,1-1.72.3,10.88,10.88,0,0,1-2.41-.23,5.75,5.75,0,0,1-2.15-.92,1.91,1.91,0,0,1-.76-1,1.31,1.31,0,0,1,.19-1.15,1.4,1.4,0,0,1,.9-.7,2,2,0,0,1,1.22.25l.53.25c.21.1.42.19.64.27l.67.21a2.84,2.84,0,0,0,.61.08,2,2,0,0,0,.56-.08.37.37,0,0,0,.27-.39.44.44,0,0,0-.23-.41,2.12,2.12,0,0,0-.54-.19l-.88-.22c-.33-.1-.64-.2-.92-.31a5.23,5.23,0,0,1-2.16-1.44,3.13,3.13,0,0,1-.71-2.07,3.39,3.39,0,0,1,.25-1.31,3,3,0,0,1,.75-1.11,3.92,3.92,0,0,1,1.29-.77,5.41,5.41,0,0,1,1.85-.28,7.14,7.14,0,0,1,4.17,1.26,1.87,1.87,0,0,1,.7.9,1.38,1.38,0,0,1-.17,1.11,1.25,1.25,0,0,1-.92.71,1.76,1.76,0,0,1-1.21-.26l-.49-.25c-.19-.1-.39-.18-.6-.27s-.43-.15-.65-.21A2.86,2.86,0,0,0,383,417.76Z" transform="translate(-230.15 -410.14)"/></svg>