<svg xmlns="http://www.w3.org/2000/svg" viewBox="0 0 40.06 39.17"><defs><style>.cls-1{fill:#19526b;}</style></defs><g id="레이어_2" data-name="레이어 2"><g id="레이어_1-2" data-name="레이어 1"><path class="cls-1" d="M39.94,22.31A13.07,13.07,0,0,1,37.41,32l-.34.43-12,.66-3.29.17a14,14,0,0,1-8.63-2.44,14.36,14.36,0,0,1-2.85-2.6l-2.47-3a3.54,3.54,0,0,1-.71-1.44,10.65,10.65,0,0,1,4.07-10.91l2.1-1.53a10.65,10.65,0,0,1,5.2-2l2-.19a8.66,8.66,0,0,1,8.21,4l2.08,3.31a5.23,5.23,0,0,1-1.34,7l-2.27,1.66a12.57,12.57,0,0,1-2.55,1.44l-.54.23a8,8,0,0,1-5.9.11L17,26.49a5.53,5.53,0,0,1-3.43-3.86A6.2,6.2,0,0,1,20,15a3.6,3.6,0,0,1,2.9,1.8L23,17a1.25,1.25,0,0,1,0,1.29l-1.16,1.88a1.25,1.25,0,0,1-2.3-.41l-.24-1.21a.87.87,0,0,0-1.7.34l.25,1.21a3,3,0,0,0,5.46,1l1.16-1.88a3,3,0,0,0,0-3.06l-.11-.2a5.32,5.32,0,0,0-4.29-2.65,7.91,7.91,0,0,0-8.18,9.81,7.29,7.29,0,0,0,4.51,5.05l1.2.46a9.73,9.73,0,0,0,7.18-.14l.54-.23a14.32,14.32,0,0,0,2.9-1.64l2.27-1.65A7,7,0,0,0,33.32,19a6.86,6.86,0,0,0-1.06-3.38l-2.08-3.31a10.37,10.37,0,0,0-9.84-4.82l-2,.19a12.29,12.29,0,0,0-6,2.32l-2.09,1.53a12.06,12.06,0,0,0-2.46,2.38,12.24,12.24,0,0,0-2.28,10.3,5.15,5.15,0,0,0,1.06,2.16l2.47,3A15.68,15.68,0,0,0,21.91,35l3.3-.18,10.19-.56A18.11,18.11,0,0,1,18,38.49a35.14,35.14,0,0,0-8.11-1.23c-4.85-.17-7.7-5.62-9.33-10.91A13.72,13.72,0,0,1,3.84,12.87,17.13,17.13,0,0,0,7.47,7a10.4,10.4,0,0,1,5-5.25,13.89,13.89,0,0,1,16.25,2,29,29,0,0,0,5.55,4.06c5.39,3,5.69,9.84,5.61,12.31a12,12,0,0,0,.11,2.16Z"/></g></g></svg>