<svg id="Layer_3" height="512" viewBox="0 0 64 64" width="512" xmlns="http://www.w3.org/2000/svg" data-name="Layer 3"><circle cx="32" cy="32" fill="#4e97d0" r="30"/><path d="m32 2a29.84 29.84 0 0 0 -15.923 4.579 29.994 29.994 0 0 0 35.846 47.842 29.994 29.994 0 0 0 -19.923-52.421z" fill="#8cbde5"/><path d="m32 1a31 31 0 1 0 31 31 31.036 31.036 0 0 0 -31-31zm-28.975 32h12.005a36.942 36.942 0 0 0 2.756 13h-11.172a28.8 28.8 0 0 1 -3.589-13zm29.975-17v-12a34.991 34.991 0 0 1 10.1 12zm11.052 2a34.984 34.984 0 0 1 2.918 13h-13.97v-13zm-13.052-2h-10.1a34.991 34.991 0 0 1 10.1-12zm0 2v13h-13.97a34.984 34.984 0 0 1 2.918-13zm-15.97 13h-12a28.8 28.8 0 0 1 3.584-13h11.172a36.942 36.942 0 0 0 -2.756 13zm2 2h13.97v13h-11.052a34.984 34.984 0 0 1 -2.918-13zm13.97 15v12a34.991 34.991 0 0 1 -10.1-12zm2 0h10.1a34.991 34.991 0 0 1 -10.1 12zm0-2v-13h13.97a34.984 34.984 0 0 1 -2.918 13zm15.97-13h12.005a28.8 28.8 0 0 1 -3.589 13h-11.172a36.942 36.942 0 0 0 2.756-13zm0-2a36.942 36.942 0 0 0 -2.756-13h11.172a28.8 28.8 0 0 1 3.589 13zm7.2-15h-10.845a37.049 37.049 0 0 0 -10.151-12.823 29.027 29.027 0 0 1 20.997 12.823zm-27.344-12.823a37.049 37.049 0 0 0 -10.151 12.823h-10.846a29.027 29.027 0 0 1 20.997-12.823zm-20.997 44.823h10.846a37.049 37.049 0 0 0 10.151 12.823 29.027 29.027 0 0 1 -20.997-12.823zm27.345 12.823a37.049 37.049 0 0 0 10.151-12.823h10.846a29.027 29.027 0 0 1 -20.997 12.823z" fill="#205a96"/><path d="m61 46a11 11 0 1 0 -13.67 10.66l2.67 5.34 2.67-5.34a11 11 0 0 0 8.33-10.66z" fill="#cacbcd"/><path d="m61 46a10.994 10.994 0 0 0 -9.524-10.89 10.987 10.987 0 0 0 -1.193 21.55l1.193 2.387 1.194-2.387a11 11 0 0 0 8.33-10.66z" fill="#e4e5e7"/><path d="m32.047 21.784a11 11 0 1 0 -13.67 10.66l2.67 5.34 2.67-5.34a10.994 10.994 0 0 0 8.33-10.66z" fill="#cacbcd"/><path d="m32.047 21.784a10.994 10.994 0 0 0 -9.523-10.89 10.987 10.987 0 0 0 -1.194 21.55l1.194 2.387 1.193-2.387a10.994 10.994 0 0 0 8.33-10.66z" fill="#e4e5e7"/><path d="m15 27h12v2h-12z" fill="#43525b"/><path d="m17 28v-8h3v-4h5v12" fill="#1b4b81"/><path d="m22 16v4h-2-1v8h6v-12z" fill="#296cb2"/><path d="m22 20h3v2h-3z" fill="#e4e5e7"/><path d="m22 24h3v2h-3z" fill="#e4e5e7"/><path d="m56 42.75v9.25h-12v-9.25l6-3.75z" fill="#81bc74"/><path d="m50 39-4 2.5v10.5h10v-9.25z" fill="#c4ddb4"/><path d="m48 52v-6h4v6" fill="#296cb2"/><path d="m57.47 44.848-7.47-4.669-7.47 4.669-1.06-1.7 8-5a1 1 0 0 1 1.06 0l8 5z" fill="#296cb2"/><path d="m32 1a31 31 0 1 0 15.343 57.921l1.762 3.526a1 1 0 0 0 1.79 0l2.469-4.939a11.949 11.949 0 0 0 7.956-15.454 30.989 30.989 0 0 0 -29.32-41.054zm24.171 15h-10.846a37.049 37.049 0 0 0 -10.151-12.823 29.027 29.027 0 0 1 20.997 12.823zm-7.2 15a36.942 36.942 0 0 0 -2.756-13h11.171a28.8 28.8 0 0 1 3.589 13zm-10.971 15h-5v-13h13.978c-.014.474-.038.946-.07 1.419a12.01 12.01 0 0 0 -8.908 11.581zm-20.253 0h-11.133a28.8 28.8 0 0 1 -3.589-13h13.79c.284.107.573.206.869.292l2.469 4.939a1 1 0 0 0 1.789 0l2.469-4.939c.3-.086.585-.185.869-.292h5.72v13h-11.073a34.988 34.988 0 0 1 -2.873-12.056l-2 .112a37.018 37.018 0 0 0 2.693 11.944zm15.253-42a34.991 34.991 0 0 1 10.1 12h-10.1zm-2 11.088a12.049 12.049 0 0 0 -6.44-4.777 35.02 35.02 0 0 1 6.44-6.311zm.047 6.7a9.975 9.975 0 0 1 -7.572 9.69 1 1 0 0 0 -.652.523l-1.776 3.551-1.775-3.552a1 1 0 0 0 -.652-.523 10 10 0 1 1 12.427-9.69zm-17.678 9.212h-10.344a28.8 28.8 0 0 1 3.589-13h3.054a11.949 11.949 0 0 0 3.7 13zm17.631 17v12a34.953 34.953 0 0 1 -10.126-12zm15.1 9.329a28.855 28.855 0 0 1 -10.928 3.481 36.838 36.838 0 0 0 6.255-6.427 11.964 11.964 0 0 0 4.673 2.946zm-13.1 2.671v-12h5.168a11.939 11.939 0 0 0 1.955 4.8 34.941 34.941 0 0 1 -7.123 7.2zm0-29v-1.151h-2v1.151h-2.275a11.949 11.949 0 0 0 3.7-13h11.627a34.984 34.984 0 0 1 2.918 13zm-4.156-27.825a36.9 36.9 0 0 0 -6.468 6.687 12.145 12.145 0 0 0 -1.329-.078 12.006 12.006 0 0 0 -10.507 6.216h-2.711a29.026 29.026 0 0 1 21.015-12.825zm-21.015 44.825h10.809a36.91 36.91 0 0 0 10.182 12.822 29.024 29.024 0 0 1 -20.991-12.822zm44.6 7.69a1 1 0 0 0 -.652.523l-1.777 3.551-1.775-3.551a1 1 0 0 0 -.652-.523 10 10 0 1 1 4.854 0zm-2.429-21.69c-.359 0-.713.023-1.064.054.02-.352.032-.7.042-1.054h11.98a28.932 28.932 0 0 1 -.924 6.438 11.993 11.993 0 0 0 -10.034-5.438z"/><path d="m49.47 38.152-8 5 1.06 1.7.47-.294v7.442a1 1 0 0 0 1 1h12a1 1 0 0 0 1-1v-7.446l.47.294 1.06-1.7-8-5a1 1 0 0 0 -1.06.004zm1.53 12.848h-2v-4h2zm4 0h-2v-5a1 1 0 0 0 -1-1h-4a1 1 0 0 0 -1 1v5h-2v-7.7l5-3.125 5 3.125z"/><path d="m19 16v3h-2a1 1 0 0 0 -1 1v7h-1v2h12v-2h-1v-11a1 1 0 0 0 -1-1h-5a1 1 0 0 0 -1 1zm2 4v-3h3v3h-2v2h2v2h-2v2h2v1h-6v-6h2a1 1 0 0 0 1-1z"/></svg>