<svg xmlns="http://www.w3.org/2000/svg" viewBox="0 0 27.57 26.96"><defs><style>.cls-1{fill:#19526b;}</style></defs><g id="레이어_2" data-name="레이어 2"><g id="레이어_1-2" data-name="레이어 1"><path class="cls-1" d="M27.49,15.35A9,9,0,0,1,25.74,22l-.23.3-8.23.45L15,22.89a9.65,9.65,0,0,1-5.94-1.68,9.26,9.26,0,0,1-2-1.79l-1.7-2.06a2.34,2.34,0,0,1-.49-1,7.29,7.29,0,0,1,2.8-7.5L9.17,7.8a7.38,7.38,0,0,1,3.58-1.36l1.36-.14a6,6,0,0,1,5.66,2.77l1.43,2.28a3.59,3.59,0,0,1-.93,4.82l-1.56,1.15a8.86,8.86,0,0,1-1.75,1l-.37.15a5.46,5.46,0,0,1-4.07.08l-.83-.31a3.83,3.83,0,0,1-2.36-2.65,4.26,4.26,0,0,1,4.4-5.28,2.49,2.49,0,0,1,2,1.23l.07.14a.84.84,0,0,1,0,.88l-.8,1.3a.86.86,0,0,1-1.58-.28l-.16-.84a.61.61,0,0,0-.7-.47.6.6,0,0,0-.47.7l.17.84a2,2,0,0,0,3.75.67l.8-1.29a2,2,0,0,0,0-2.11l-.07-.13a3.69,3.69,0,0,0-3-1.83,5.44,5.44,0,0,0-5.62,6.75,5,5,0,0,0,3.1,3.48l.83.31a6.69,6.69,0,0,0,4.94-.09l.37-.16a9.81,9.81,0,0,0,2-1.13L21,17.13a4.74,4.74,0,0,0,2-4.09,4.84,4.84,0,0,0-.73-2.33L20.77,8.44A7.15,7.15,0,0,0,14,5.12l-1.37.13A8.5,8.5,0,0,0,8.47,6.84L7,7.9A8.21,8.21,0,0,0,5.34,9.54a8.43,8.43,0,0,0-1.57,7.09,3.55,3.55,0,0,0,.73,1.48l1.7,2.07a10.76,10.76,0,0,0,2.2,2,10.88,10.88,0,0,0,6.68,1.89L17.35,24l7-.39a12.46,12.46,0,0,1-11.95,2.92,24,24,0,0,0-5.58-.85c-3.34-.12-5.3-3.87-6.42-7.51A9.41,9.41,0,0,1,2.65,8.86a11.91,11.91,0,0,0,2.49-4A7.16,7.16,0,0,1,8.55,1.2,9.56,9.56,0,0,1,19.73,2.6a19.87,19.87,0,0,0,3.82,2.79c3.71,2.07,3.91,6.78,3.86,8.48a8.16,8.16,0,0,0,.08,1.48Z"/></g></g></svg>